<svg xmlns="http://www.w3.org/2000/svg" viewBox="0 0 64 80" x="0px" y="0px"><path d="M61,54H59V51a1,1,0,0,0-1-1H54.923L53.016,26.154,54.677,22H61a1,1,0,0,0,.483-1.876l-29-16a1,1,0,0,0-.966,0l-29,16A1,1,0,0,0,3,22H9.323l1.661,4.154L9.077,50H6a1,1,0,0,0-1,1v3H3a1,1,0,0,0-1,1v4a1,1,0,0,0,1,1H61a1,1,0,0,0,1-1V55A1,1,0,0,0,61,54Zm-8.083-4H47.083L49,26.08a1,1,0,0,0-.068-.451L47.477,22h5.046l-1.452,3.629A1,1,0,0,0,51,26.08ZM36.923,50,35.016,26.154,36.677,22h8.646l1.661,4.154L45.077,50Zm-18,0L17.016,26.154,18.677,22h8.646l1.661,4.154L27.077,50ZM30.929,25.629,29.477,22h5.046l-1.452,3.629A1,1,0,0,0,33,26.08L34.917,50H29.083L31,26.08A1,1,0,0,0,30.929,25.629ZM32,6.143,57.117,20H6.883ZM12.929,25.629,11.477,22h5.046l-1.452,3.629A1,1,0,0,0,15,26.08L16.917,50H11.083L13,26.08A1,1,0,0,0,12.929,25.629ZM7,52H57v2H7Zm53,6H4V56H60Z"/><path d="M32,18a4,4,0,1,0-4-4A4,4,0,0,0,32,18Zm0-6a2,2,0,1,1-2,2A2,2,0,0,1,32,12Z"/><text x="0" y="79" fill="#000000" font-size="5px" font-weight="bold" font-family="'Helvetica Neue', Helvetica, Arial-Unicode, Arial, Sans-serif">Created by Mavadee</text><text x="0" y="84" fill="#000000" font-size="5px" font-weight="bold" font-family="'Helvetica Neue', Helvetica, Arial-Unicode, Arial, Sans-serif">from the Noun Project</text></svg>